<svg version="1" xmlns="http://www.w3.org/2000/svg" viewBox="0 0 425.85 311.21"  style="background: #fff">
  <circle fill="#B79A69" cx="276.34" cy="155.87" r="140.21"/>
  <g fill="#FFF">
    <path d="M260.38 218.9l1.93-6.62 2.07.66c5.28 1.69 8.83 3.07 10.49 3.76l.13.07.14.06.21.07.1.04.1-.04.18-.07.14-.06.14-.07c1.69-.7 5.28-2.07 10.52-3.76 5.28-1.7 12.32-3.7 20.84-5.6a216.82 216.82 0 0 1 23.46-3.9c5.56-.58 8.8-.65 9.32-.65h.2a1.38 1.38 0 0 0 1.25-1.35v-99.57h10.97a4.35 4.35 0 0 1 4.38 4.28v108.47a4.35 4.35 0 0 1-4.38 4.28H290.5c-.6.2-1.25.42-1.87.59a141.9 141.9 0 0 0-9.83 3.55c-.31.14-.59.28-.9.38l-.24.1a5.3 5.3 0 0 1-1.9.39l-.3-.04-.35.04a5.22 5.22 0 0 1-1.97-.45l-.07-.04a119.53 119.53 0 0 0-10.8-3.93c-.62-.17-1.2-.38-1.9-.58z"/>
    <path d="M212.1 87.1c1.04-.03 2.42-.1 4.25-.1 2.28 0 5.17.07 8.87.31 3.55.2 7.9.59 13 1.17a128.54 128.54 0 0 1 26.43 6.18c4.76 1.62 8.42 3.17 10.32 3.97l.48.17.1-.04a91.7 91.7 0 0 0 2.5-1c2.06-.83 4.82-1.93 8.2-3.1 6.8-2.35 16.01-4.94 26.43-6.18 5.11-.59 9.46-.97 13.04-1.17 3.63-.24 6.56-.31 8.84-.31 1.8 0 3.24.07 4.24.1.83.04 1.42.1 1.76.14 2.2.1 4.14 1.04 5.56 2.45a8.32 8.32 0 0 1 2.38 5.8v6.38h-6.9v-6.38c0-.38-.14-.7-.42-.93a1.45 1.45 0 0 0-.9-.42h-.37c-.07-.04-.6-.07-1.49-.14-.9-.03-2.17-.07-3.86-.07-2.14 0-4.9.07-8.35.28-3.56.2-7.73.59-12.73 1.17a119.1 119.1 0 0 0-24.95 5.83c-.66.2-1.24.42-1.9.66-2 .72-3.76 1.41-5.2 2-1.32.52-2.35.97-3.22 1.28v96.81a2.77 2.77 0 0 1-2.76 2.76 2.8 2.8 0 0 1-2.76-2.76v-96.81c-.65-.24-1.45-.59-2.41-.97a149.09 149.09 0 0 0-7.9-2.97 118.61 118.61 0 0 0-24.95-5.83c-5-.58-9.21-.96-12.66-1.17-3.52-.2-6.28-.28-8.42-.28a55.42 55.42 0 0 0-5.35.21h-.34c-.76.03-1.35.62-1.35 1.35v105.96c0 .38.17.69.41.96l.42.28.41.1h.2c.5 0 3.77.07 9.32.66a214.9 214.9 0 0 1 23.47 3.9 241.5 241.5 0 0 1 18.76 4.93l-1.93 6.63H197.3a4.34 4.34 0 0 1-4.38-4.28V106.15a4.34 4.34 0 0 1 4.38-4.28h5.11V95.5a8.25 8.25 0 0 1 7.94-8.25c.3-.03.9-.1 1.75-.14z"/>
  </g>
  <path d="M18.48 19.89v2.96c.25-.42.71-.84 1.56-.84s1.72.47 1.72 1.96v3.25h-.98v-3.1c0-.82-.34-1.28-1.05-1.28-.89 0-1.25.6-1.25 1.6v2.78h-.98v-7.33h.98zm3.85 2.24h.86v-1.48h.98v1.48h1.1v.78h-1.1v2.89c0 .48.12.7.57.7.12 0 .3 0 .42-.03v.73c-.23.07-.54.09-.79.09-.84 0-1.18-.43-1.18-1.3v-3.08h-.86v-.78z"/>
  <path d="M25.2 22.13h.86v-1.48h.98v1.48h1.1v.78h-1.1v2.89c0 .48.12.7.57.7.12 0 .3 0 .42-.03v.73c-.23.07-.54.09-.79.09-.84 0-1.18-.43-1.18-1.3v-3.08h-.86v-.78zm3.62 7.07v-7.07h.94c.02.16.04.47.04.77.26-.5.77-.9 1.62-.9 1.18 0 2.04.99 2.04 2.54 0 1.82-.99 2.8-2.22 2.8-.8 0-1.22-.33-1.44-.71v2.57h-.98zm2.33-6.37c-1 0-1.4.64-1.4 1.84 0 1.16.33 1.85 1.33 1.85.9 0 1.37-.73 1.37-1.94 0-1.05-.47-1.75-1.3-1.75zM35 25.75c.12.53.52.83 1.18.83.7 0 .97-.3.97-.72 0-.45-.23-.65-1.15-.88-1.5-.36-1.79-.82-1.79-1.52 0-.72.53-1.45 1.88-1.45 1.36 0 1.9.78 1.95 1.48h-.94c-.07-.3-.29-.74-1.05-.74-.67 0-.87.32-.87.63 0 .36.2.53 1.11.75 1.58.37 1.87.9 1.87 1.65 0 .89-.69 1.56-2.02 1.56-1.36 0-2-.68-2.13-1.6H35zm4.32-2.11v-1.5h1.01v1.5h-1zm0 3.58v-1.5h1.01v1.5h-1zm2.03.51l2.8-7.56H45l-2.79 7.56h-.86zm4.31 0l2.8-7.56h.85l-2.79 7.56h-.86zm4.52-4.23v-1.37h.95c.02.14.03.56.03 1 .26-.66.85-1.1 1.7-1.12v.97c-1.04.02-1.7.5-1.7 1.82v2.42h-.98V23.5zm3.96 1.36c.01.96.5 1.67 1.32 1.67.76 0 1.01-.38 1.16-.74h.99c-.2.65-.74 1.55-2.18 1.55-1.6 0-2.28-1.3-2.28-2.61 0-1.53.77-2.72 2.34-2.72 1.66 0 2.21 1.3 2.21 2.43 0 .16 0 .28-.02.42h-3.54zm2.57-.67c0-.8-.4-1.42-1.23-1.42-.86 0-1.23.59-1.3 1.42h2.53zm5.75 1.88c0 .47.04 1 .07 1.15h-.93a3.12 3.12 0 0 1-.09-.63c-.17.33-.57.75-1.54.75-1.2 0-1.72-.8-1.72-1.56 0-1.14.9-1.67 2.41-1.67h.84v-.41c0-.43-.14-.94-1.03-.94-.8 0-.95.39-1.03.78h-.95c.07-.74.53-1.54 2.01-1.53 1.27 0 1.96.52 1.96 1.68v2.38zm-.95-1.3h-.78c-.98 0-1.48.28-1.48.95 0 .5.34.87.94.87 1.16 0 1.32-.8 1.32-1.66v-.16zm6.54-4.88v7.33h-.94c-.02-.14-.04-.5-.04-.7-.25.52-.75.82-1.57.82-1.3 0-2.12-1.06-2.12-2.61 0-1.57.87-2.72 2.29-2.72.86 0 1.26.34 1.4.62v-2.74h.98zm-2.33 6.63c1.15 0 1.38-.86 1.38-1.91 0-1.08-.21-1.78-1.3-1.78-.88 0-1.4.68-1.4 1.87 0 1.18.55 1.82 1.32 1.82zm3.58-3.02v-1.37h.95c.02.14.03.56.03 1 .26-.66.85-1.1 1.7-1.12v.97c-1.04.02-1.7.5-1.7 1.82v2.42h-.98V23.5zm7.41 2.15c-.21.87-.8 1.69-2.14 1.69-1.43 0-2.29-1.03-2.29-2.64 0-1.45.83-2.7 2.36-2.7 1.51 0 2.01 1.09 2.07 1.73h-.97c-.11-.5-.42-.91-1.12-.91-.85 0-1.33.73-1.33 1.85 0 1.14.47 1.87 1.3 1.87.61 0 .96-.33 1.15-.9h.97zm.75 1.57v-1.53h1.04v1.53h-1.04zm6.2-1.57c-.21.87-.8 1.69-2.14 1.69-1.43 0-2.29-1.03-2.29-2.64 0-1.45.83-2.7 2.36-2.7 1.51 0 2.01 1.09 2.07 1.73h-.97c-.1-.5-.42-.91-1.12-.91-.85 0-1.33.73-1.33 1.85 0 1.14.47 1.87 1.3 1.87.61 0 .96-.33 1.15-.9h.97zm.84 1.57v-7.33h.97v7.33h-.98zm6.39-1.48l.01 1.48h-.96a6.38 6.38 0 0 1-.03-.73c-.26.55-.74.85-1.5.85-.9 0-1.7-.47-1.7-1.87v-3.34h.98v3.13c0 .65.2 1.24 1 1.24.88 0 1.22-.48 1.22-1.71v-2.66h.98v3.6zm1.26-5.85h.98v2.93c.23-.41.7-.81 1.6-.81 1.29 0 2.07 1.07 2.07 2.56 0 1.53-.77 2.77-2.2 2.77-.82 0-1.22-.3-1.48-.76 0 .25-.02.5-.04.64h-.94l.01-1.7v-5.63zm2.32 2.94c-1.02 0-1.39.69-1.39 1.86 0 1.02.32 1.83 1.36 1.83.86 0 1.36-.74 1.36-1.93 0-1.05-.47-1.76-1.33-1.76zm-76.8 167.44h2.73c1.51 0 2.19.8 2.19 1.75 0 .8-.46 1.32-.98 1.5.48.17 1.2.66 1.2 1.66 0 1.28-.99 2.04-2.33 2.04h-2.8v-6.95zm2.56 2.86c.95 0 1.32-.38 1.32-1.02 0-.6-.43-1-1.2-1h-1.67v2.02h1.55zm-1.55 3.25h1.65c.86 0 1.42-.4 1.42-1.21 0-.72-.46-1.2-1.57-1.2h-1.5v2.4zm9.23-.64l.01 1.48h-.96a6.38 6.38 0 0 1-.03-.73c-.26.55-.74.85-1.5.85-.9 0-1.7-.47-1.7-1.87v-3.34h.98v3.13c0 .65.2 1.24 1 1.24.88 0 1.22-.48 1.22-1.71v-2.66h.98v3.6zm1.26-4.72v-1.13h.98v1.13h-.98zm0 1.1h.98v5.1h-.98v-5.1zm2.24 5.1v-7.33h.98v7.33h-.98zm1.65-5.09h.86v-1.48h.98v1.48H36v.78h-1.1v2.89c0 .48.12.7.57.7.12 0 .3 0 .42-.03v.73c-.23.07-.54.09-.79.09-.84 0-1.18-.43-1.18-1.3v-3.08h-.86v-.78zm6.54 0c.6 2.32.94 3.64 1.03 4.19h.01c.1-.5.41-1.67 1.12-4.2h.95c.75 2.82.97 3.63 1.06 4.1h.01c.12-.53.3-1.3 1.07-4.1h.99l-1.56 5.1h-1.06c-.48-1.87-.92-3.45-1.03-4.03h-.01c-.09.57-.5 2.05-1.06 4.03h-1.09l-1.47-5.1h1.04zm7-1.11v-1.13h.98v1.13h-.98zm0 1.1h.98v5.1h-.98v-5.1zm1.65.01h.86v-1.48h.98v1.48h1.1v.78h-1.1v2.89c0 .48.12.7.57.7.12 0 .3 0 .42-.03v.73c-.23.07-.54.09-.79.09-.84 0-1.18-.43-1.18-1.3v-3.08h-.86v-.78zm4.62-2.24v2.96c.25-.42.71-.84 1.56-.84s1.72.47 1.72 1.96v3.25h-.98v-3.1c0-.82-.34-1.28-1.05-1.28-.89 0-1.25.6-1.25 1.6v2.78h-.98v-7.33h.98zm4.65 3.75v-1.5h1.01v1.5h-1zm0 3.58v-1.5h1.01v1.5h-1zm-36.81 4.42v2.34h2.31v.85h-2.3v2.39h-.87v-2.4h-2.32v-.84h2.32v-2.34h.86zm11.65 3.58c-.3 1.2-1.2 2.09-2.8 2.09-2.1 0-3.15-1.57-3.15-3.54 0-1.9 1.05-3.6 3.2-3.6 1.67 0 2.56.97 2.75 2.13h-1.03c-.23-.72-.7-1.28-1.77-1.28-1.48 0-2.07 1.34-2.07 2.72 0 1.33.56 2.72 2.11 2.72 1.05 0 1.49-.62 1.73-1.24h1.03zm1.9-5.33v2.96c.25-.42.71-.84 1.56-.84s1.72.47 1.72 1.96v3.25h-.98v-3.1c0-.82-.34-1.28-1.05-1.28-.89 0-1.25.6-1.25 1.6v2.78h-.98v-7.33h.98zm8.98 4.77c0 1.49-.85 2.68-2.42 2.68-1.48 0-2.37-1.13-2.37-2.66 0-1.51.88-2.67 2.43-2.67 1.43 0 2.36 1.06 2.36 2.65zm-3.78 0c0 1.1.53 1.87 1.4 1.87.88 0 1.38-.73 1.38-1.85 0-1.13-.5-1.86-1.4-1.86s-1.38.7-1.38 1.85zm9.19 0c0 1.49-.85 2.68-2.42 2.68-1.48 0-2.37-1.13-2.37-2.66 0-1.51.88-2.67 2.43-2.67 1.43 0 2.36 1.06 2.36 2.65zm-3.78 0c0 1.1.53 1.87 1.4 1.87.88 0 1.38-.73 1.38-1.85 0-1.13-.5-1.86-1.4-1.86s-1.38.7-1.38 1.85zm-24.16 6.98v2.34h2.31v.85h-2.3v2.39h-.87v-2.4h-2.32v-.84h2.32v-2.34h.86zm6.62 3.63c.2.8.74 1.23 1.71 1.23 1.03 0 1.44-.47 1.44-1.1 0-.67-.34-1.04-1.69-1.36-1.69-.41-2.23-1-2.23-1.96 0-1.07.78-1.91 2.35-1.91 1.69 0 2.38.97 2.48 1.9h-1.05c-.11-.58-.47-1.08-1.46-1.08-.8 0-1.26.35-1.26.98 0 .62.38.87 1.57 1.16 1.99.48 2.36 1.25 2.36 2.15 0 1.15-.85 2.03-2.58 2.03-1.75 0-2.53-.94-2.68-2.04h1.04zm6.19-5.38v2.96c.25-.42.71-.84 1.56-.84s1.72.47 1.72 1.96v3.25h-.98v-3.1c0-.82-.34-1.28-1.05-1.28-.89 0-1.25.6-1.25 1.6v2.78h-.98v-7.33h.98zm5.18 4.97c.01.96.5 1.67 1.32 1.67.76 0 1.01-.38 1.16-.74h.99a2.1 2.1 0 0 1-2.18 1.55c-1.6 0-2.28-1.3-2.28-2.61 0-1.53.77-2.72 2.34-2.72 1.66 0 2.21 1.3 2.21 2.43 0 .16 0 .28-.02.42H38.7zm2.57-.67c-.01-.8-.4-1.42-1.23-1.42-.86 0-1.23.59-1.3 1.42h2.53zm2.59.67c.01.96.5 1.67 1.32 1.67.76 0 1.01-.38 1.16-.74h.99c-.2.65-.74 1.55-2.18 1.55-1.6 0-2.28-1.3-2.28-2.61 0-1.53.77-2.72 2.34-2.72 1.66 0 2.21 1.3 2.21 2.43 0 .16 0 .28-.02.42h-3.54zm2.57-.67c-.01-.8-.4-1.42-1.23-1.42-.86 0-1.23.59-1.3 1.42h2.53zm1.3-2.06h.86v-1.48h.98v1.48h1.1v.78h-1.1v2.89c0 .48.12.7.57.7.12 0 .3 0 .42-.03v.73c-.23.07-.54.09-.79.09-.84 0-1.18-.43-1.18-1.3v-3.08h-.86v-.78zm3.64-1.11v-1.13h.98v1.13h-.98zm0 1.1h.98v5.1h-.98v-5.1zm2.5 5.1v-4.31h-.8v-.78h.8v-.58c0-.96.4-1.76 1.51-1.76.2 0 .46.02.58.06v.82c-.1-.03-.28-.04-.42-.04-.5 0-.69.28-.69.99v.5h1v.79h-1v4.3h-.98zm3.37-5.09a93.2 93.2 0 0 1 1.35 4.2h.01c.15-.56.5-1.72 1.29-4.2h.99l-1.8 5.3c-.52 1.48-.9 1.87-1.99 1.87-.15 0-.36 0-.57-.03v-.83l.41.02c.62 0 .87-.27 1.15-1.06l-1.9-5.27h1.06zm-36.53 9.51v2.34h2.31v.85h-2.3v2.39h-.87v-2.4h-2.32v-.84h2.32v-2.34h.86zm6.09-1.37h2.72c1.51 0 2.19.8 2.19 1.75 0 .8-.46 1.32-.98 1.5.48.17 1.2.66 1.2 1.66 0 1.28-.99 2.04-2.33 2.04h-2.8v-6.95zm2.55 2.86c.95 0 1.32-.38 1.32-1.02 0-.6-.43-1-1.2-1H27.8v2.02h1.55zm-1.55 3.25h1.65c.86 0 1.42-.4 1.42-1.21 0-.72-.46-1.2-1.57-1.2h-1.5v2.4zm9.01-.31c0 .47.04 1 .07 1.15h-.93a3.05 3.05 0 0 1-.09-.63c-.17.33-.57.75-1.54.75-1.2 0-1.72-.8-1.72-1.56 0-1.14.9-1.67 2.41-1.67h.84v-.41c0-.43-.14-.94-1.03-.94-.8 0-.95.39-1.03.78h-.95c.07-.74.53-1.54 2.01-1.53 1.27 0 1.96.52 1.96 1.68v2.38zm-.95-1.3h-.78c-.98 0-1.48.28-1.48.95 0 .5.34.87.94.87 1.16 0 1.32-.8 1.32-1.66v-.16zm2.22-1.37v-1.27h.95c.02.15.04.65.04.8.2-.42.61-.92 1.57-.92.97 0 1.7.6 1.7 1.94v3.27h-.98v-3.15c0-.73-.28-1.23-1.03-1.23-.89 0-1.26.66-1.26 1.66v2.72h-.99v-3.81zm6.49 1.1c.42-.5 1.45-1.6 2.14-2.37h1.16l-1.89 1.97 2.1 3.12h-1.14l-1.63-2.5-.74.73v1.77h-.98v-7.33h.98v4.6zm7.97 1.57c0 .47.04 1 .07 1.15h-.93a3.05 3.05 0 0 1-.09-.63c-.17.33-.57.75-1.54.75-1.2 0-1.72-.8-1.72-1.56 0-1.14.9-1.67 2.41-1.67h.84v-.41c0-.43-.14-.94-1.03-.94-.8 0-.95.39-1.03.78h-.95c.07-.74.53-1.54 2.01-1.53 1.27 0 1.96.52 1.96 1.68v2.38zm-.95-1.3h-.78c-.98 0-1.48.28-1.48.95 0 .5.34.87.94.87 1.16 0 1.32-.8 1.32-1.66v-.16zm2.22-3.75v-1.13h.98v1.13h-.98zm0 1.1h.98v5.1h-.98v-5.1zm-33.1 9.52v2.34h2.31v.85h-2.3v2.39h-.87v-2.4h-2.32v-.84h2.32v-2.34h.86zm6.09 5.58v-6.95h1.33c.97 1.62 3.03 4.95 3.41 5.7-.06-.86-.05-1.97-.05-3.11v-2.6h.96v6.96h-1.26c-.89-1.48-3.05-5.1-3.47-5.9h-.02c.05.77.06 1.99.06 3.25v2.65h-.97zm10.8-1.15c0 .47.04 1 .07 1.15h-.93a3.05 3.05 0 0 1-.09-.63c-.17.33-.57.75-1.54.75-1.2 0-1.72-.8-1.72-1.56 0-1.14.9-1.67 2.41-1.67h.84v-.41c0-.43-.14-.94-1.03-.94-.8 0-.95.39-1.03.78h-.95c.07-.74.53-1.54 2.01-1.53 1.27 0 1.96.52 1.96 1.68v2.38zm-.95-1.3h-.78c-.98 0-1.48.28-1.48.95 0 .5.34.87.94.87 1.16 0 1.32-.8 1.32-1.66v-.16zm2.22-1.37v-1.27h.95c.02.15.04.65.04.8.2-.42.61-.92 1.57-.92.97 0 1.7.6 1.7 1.94v3.27h-.98v-3.15c0-.73-.28-1.23-1.03-1.23-.89 0-1.26.66-1.26 1.66v2.72h-.99v-3.81zm9.95 1.26c0 1.49-.85 2.68-2.42 2.68-1.48 0-2.37-1.13-2.37-2.66 0-1.51.88-2.67 2.43-2.67 1.43 0 2.36 1.06 2.36 2.65zm-3.78 0c0 1.1.53 1.87 1.4 1.87.88 0 1.38-.73 1.38-1.85 0-1.13-.5-1.86-1.4-1.86s-1.38.7-1.38 1.85zm8.84.99c-.21.87-.8 1.69-2.14 1.69-1.43 0-2.29-1.03-2.29-2.64 0-1.45.83-2.7 2.36-2.7 1.51 0 2.01 1.09 2.07 1.73h-.97c-.11-.5-.42-.91-1.12-.91-.85 0-1.33.73-1.33 1.85 0 1.14.47 1.87 1.3 1.87.61 0 .96-.33 1.15-.9h.97zm5.32-.99c0 1.49-.85 2.68-2.42 2.68-1.48 0-2.37-1.13-2.37-2.66 0-1.51.88-2.67 2.43-2.67 1.43 0 2.36 1.06 2.36 2.65zm-3.78 0c0 1.1.53 1.87 1.4 1.87.88 0 1.38-.73 1.38-1.85 0-1.13-.5-1.86-1.4-1.86s-1.38.7-1.38 1.85zm4.69-1.22v-1.31h.93c.02.15.04.5.04.75.24-.44.68-.87 1.47-.87.72 0 1.2.37 1.39.88.28-.47.75-.88 1.6-.88.85 0 1.62.5 1.62 1.87v3.34h-.96v-3.23c0-.56-.21-1.15-.96-1.15-.78 0-1.12.58-1.12 1.46v2.92h-.96v-3.2c0-.62-.18-1.18-.94-1.18-.77 0-1.14.6-1.14 1.56v2.82h-.97v-3.78zm8.31 5.76v-7.07h.94a7 7 0 0 1 .04.77c.26-.5.77-.9 1.62-.9 1.18 0 2.04.99 2.04 2.54 0 1.82-.99 2.8-2.22 2.8-.8 0-1.22-.33-1.44-.71v2.57h-.98zm2.33-6.37c-1 0-1.4.64-1.4 1.84 0 1.16.33 1.85 1.33 1.85.9 0 1.37-.73 1.37-1.94 0-1.05-.47-1.75-1.3-1.75zm7.72 1.83c0 1.49-.85 2.68-2.42 2.68-1.48 0-2.37-1.13-2.37-2.66 0-1.51.88-2.67 2.43-2.67 1.43 0 2.36 1.06 2.36 2.65zm-3.78 0c0 1.1.53 1.87 1.4 1.87.88 0 1.38-.73 1.38-1.85 0-1.13-.5-1.86-1.4-1.86s-1.38.7-1.38 1.85zm4.69-1.26v-1.27h.95c.02.15.04.65.04.8.2-.42.61-.92 1.57-.92.97 0 1.7.6 1.7 1.94v3.27h-.98v-3.15c0-.73-.28-1.23-1.03-1.23-.89 0-1.26.66-1.26 1.66v2.72h-.99v-3.81zm6.15 1.46c.01.96.5 1.67 1.32 1.67.76 0 1.01-.38 1.16-.74H89a2.1 2.1 0 0 1-2.18 1.55c-1.6 0-2.28-1.3-2.28-2.61 0-1.53.77-2.72 2.34-2.72 1.66 0 2.2 1.3 2.2 2.43l-.01.42h-3.54zm2.57-.67c-.01-.8-.4-1.42-1.23-1.42-.86 0-1.23.59-1.3 1.42h2.53zm1.88-.79v-1.27h.95c.02.15.04.65.04.8.2-.42.61-.92 1.57-.92.97 0 1.7.6 1.7 1.94v3.27h-.98v-3.15c0-.73-.28-1.23-1.03-1.23-.89 0-1.26.66-1.26 1.66v2.72h-.99v-3.81zm4.82-1.27h.86v-1.48h.98v1.48h1.1v.78h-1.1v2.89c0 .48.12.7.57.7.12 0 .3 0 .42-.03v.73c-.23.07-.54.09-.79.09-.84 0-1.18-.43-1.18-1.3v-3.08h-.86v-.78zm-74.09 9.51v2.34h2.31v.85h-2.3v2.39h-.87v-2.4h-2.32v-.84h2.32v-2.34h.86zm10.19 5.09c0 1.62-.66 2.57-2.38 2.57-1.6 0-2.05-.9-2.14-1.57h1c.14.52.55.81 1.2.81 1.1 0 1.36-.7 1.36-1.83v-.38c-.27.54-.73.86-1.56.86-1.27 0-2.1-1.04-2.1-2.51 0-1.64.96-2.67 2.2-2.67.95 0 1.35.45 1.46.77l.04-.65h.93l-.01 1.47v3.13zm-2.28-.37c1.05 0 1.35-.7 1.35-1.78 0-1.1-.27-1.75-1.32-1.75-.88 0-1.36.73-1.36 1.8 0 1.05.53 1.73 1.33 1.73zm3.53-2.86v-1.37h.95c.02.14.03.56.03 1 .26-.66.85-1.1 1.7-1.12v.97c-1.04.02-1.7.5-1.7 1.82v2.42h-.98v-3.71zm3.11 1.85c0-.91.62-1.44 1.17-1.66-.56-.3-.89-.73-.89-1.4 0-1.03.74-1.77 2.12-1.77 1.26 0 2.04.72 2.04 1.76 0 .72-.38 1.16-.9 1.36.59.2 1.15.8 1.15 1.68 0 1.28-.99 2.02-2.39 2.02-1.29 0-2.3-.75-2.3-2zm3.7-.04c0-.8-.52-1.21-1.35-1.21-.92 0-1.34.52-1.34 1.2 0 .7.5 1.24 1.35 1.24.78 0 1.33-.41 1.33-1.23zm-2.46-3c0 .53.35.97 1.14.97.75 0 1.1-.35 1.1-.95 0-.56-.36-1.01-1.1-1.01-.8 0-1.14.39-1.14.99zm-15.79 9.33v2.34h2.31v.85h-2.3v2.39h-.87v-2.4h-2.32v-.84h2.32v-2.34h.86zm6.09-1.37h2.52c1.97 0 3.29 1.34 3.29 3.4 0 2.05-1.29 3.55-3.33 3.55H26.8v-6.95zm1.02 6.09h1.4c1.57 0 2.31-1.14 2.31-2.67 0-1.33-.68-2.55-2.3-2.55h-1.4v5.22zm9.66-.29c0 .47.04 1 .07 1.15h-.93a3.05 3.05 0 0 1-.09-.63c-.17.33-.57.75-1.54.75-1.2 0-1.72-.8-1.72-1.56 0-1.14.9-1.67 2.41-1.67h.84v-.41c0-.43-.14-.94-1.03-.94-.8 0-.95.39-1.03.78h-.95c.07-.74.53-1.54 2.01-1.53 1.27 0 1.96.52 1.96 1.68v2.38zm-.95-1.3h-.78c-.98 0-1.48.28-1.48.95 0 .5.34.87.94.87 1.16 0 1.32-.8 1.32-1.66v-.16zm1.52-2.64h.86v-1.48h.98v1.48H41v.78h-1.1v2.89c0 .48.12.7.57.7.12 0 .3 0 .42-.03v.73c-.23.07-.54.09-.79.09-.84 0-1.18-.43-1.18-1.3v-3.08h-.86v-.78zm-17.34 9.51v2.34h2.31v.85h-2.3v2.39h-.87v-2.4h-2.32v-.84h2.32v-2.34h.86zm6.09-1.37h2.72c1.51 0 2.19.8 2.19 1.75 0 .8-.46 1.32-.98 1.5.48.17 1.2.66 1.2 1.66 0 1.28-.99 2.04-2.33 2.04h-2.8v-6.95zm2.55 2.86c.95 0 1.32-.38 1.32-1.02 0-.6-.43-1-1.2-1H27.8v2.02h1.55zm-1.55 3.25h1.65c.86 0 1.42-.4 1.42-1.21 0-.72-.46-1.2-1.57-1.2h-1.5v2.4zm5.78-1.52c.01.96.5 1.67 1.32 1.67.76 0 1.01-.38 1.16-.74h.99a2.1 2.1 0 0 1-2.18 1.55c-1.6 0-2.28-1.3-2.28-2.61 0-1.53.77-2.72 2.34-2.72 1.66 0 2.21 1.3 2.21 2.43 0 .16 0 .28-.02.42h-3.54zm2.57-.67c-.01-.8-.4-1.42-1.23-1.42-.86 0-1.23.59-1.3 1.42h2.53zm5.75 1.88c0 .47.04 1 .07 1.15h-.93a3.12 3.12 0 0 1-.09-.63c-.17.33-.57.75-1.54.75-1.2 0-1.72-.8-1.72-1.56 0-1.14.9-1.67 2.41-1.67h.84v-.41c0-.43-.14-.94-1.03-.94-.8 0-.95.39-1.03.78h-.95c.07-.74.53-1.54 2.01-1.53 1.27 0 1.96.52 1.96 1.68v2.38zm-.95-1.3h-.78c-.98 0-1.48.28-1.48.95 0 .5.34.87.94.87 1.16 0 1.32-.8 1.32-1.66v-.16zm3.2-.27c.42-.5 1.45-1.6 2.14-2.37h1.16l-1.89 1.97 2.1 3.12h-1.14l-1.63-2.5-.74.73v1.77h-.98v-7.33h.98v4.6zm4.51.36c.01.96.5 1.67 1.32 1.67.76 0 1.01-.38 1.16-.74h.99c-.2.65-.74 1.55-2.18 1.55-1.6 0-2.28-1.3-2.28-2.61 0-1.53.77-2.72 2.34-2.72 1.66 0 2.2 1.3 2.2 2.43l-.01.42h-3.54zm2.57-.67c-.01-.8-.4-1.42-1.23-1.42-.86 0-1.23.59-1.3 1.42h2.53zm1.88-.69v-1.37h.95c.02.14.03.56.03 1 .26-.66.85-1.1 1.7-1.12v.97c-1.04.02-1.7.5-1.7 1.82v2.42h-.98v-3.71zm5.89-3.23h2.72c1.51 0 2.19.8 2.19 1.75 0 .8-.46 1.32-.98 1.5.48.17 1.2.66 1.2 1.66 0 1.28-.99 2.04-2.33 2.04H59v-6.95zm2.55 2.86c.95 0 1.32-.38 1.32-1.02 0-.6-.43-1-1.2-1H60v2.02h1.55zM60 266.38h1.65c.86 0 1.42-.4 1.42-1.21 0-.72-.46-1.2-1.57-1.2H60v2.4zm5.1-2.88l-.02-1.37h.96c.02.14.03.56.03 1 .26-.66.85-1.1 1.7-1.12v.97c-1.04.02-1.7.5-1.7 1.82v2.42h-.98v-3.71zm7.75 1.16c0 1.49-.85 2.68-2.42 2.68-1.48 0-2.37-1.13-2.37-2.66 0-1.51.88-2.67 2.43-2.67 1.43 0 2.36 1.06 2.36 2.65zm-3.78 0c0 1.1.53 1.87 1.4 1.87.88 0 1.38-.73 1.38-1.85 0-1.13-.5-1.86-1.4-1.86s-1.38.7-1.38 1.85zm5.18-2.53c.6 2.32.94 3.64 1.03 4.19h.01c.1-.5.41-1.67 1.12-4.2h.95c.75 2.82.97 3.63 1.06 4.1.13-.53.32-1.3 1.08-4.1h.99l-1.56 5.1h-1.06c-.48-1.87-.92-3.45-1.03-4.03-.1.57-.52 2.05-1.07 4.03h-1.09l-1.47-5.1h1.04zm7.48 3.62c.13.53.53.83 1.2.83.7 0 .96-.3.96-.72 0-.45-.23-.65-1.15-.88-1.5-.36-1.79-.82-1.79-1.52 0-.72.53-1.45 1.88-1.45 1.36 0 1.89.78 1.95 1.48h-.94c-.07-.3-.29-.74-1.05-.74-.67 0-.87.32-.87.63 0 .36.2.53 1.11.75 1.58.37 1.87.9 1.87 1.65 0 .89-.69 1.56-2.02 1.56-1.36 0-2-.68-2.13-1.6h.98zm4.73-.89c.01.96.5 1.67 1.32 1.67.76 0 1.01-.38 1.16-.74h.99a2.1 2.1 0 0 1-2.18 1.55c-1.6 0-2.28-1.3-2.28-2.61 0-1.53.77-2.72 2.34-2.72 1.66 0 2.21 1.3 2.21 2.43 0 .16 0 .28-.02.42h-3.54zm2.57-.67c-.01-.8-.4-1.42-1.23-1.42-.86 0-1.23.59-1.3 1.42h2.53zm1.88-.69v-1.37h.95c.02.14.03.56.03 1 .26-.66.85-1.1 1.7-1.12v.97c-1.04.02-1.7.5-1.7 1.82v2.42h-.98v-3.71zm-70.2 8.14v2.34h2.31v.85h-2.3v2.39h-.87v-2.4h-2.32v-.84h2.32v-2.34h.86zm11.65 3.58c-.3 1.2-1.2 2.09-2.8 2.09-2.1 0-3.15-1.57-3.15-3.54 0-1.9 1.05-3.6 3.2-3.6 1.67 0 2.56.97 2.75 2.13h-1.03c-.23-.72-.7-1.28-1.77-1.28-1.48 0-2.07 1.34-2.07 2.72 0 1.33.56 2.72 2.11 2.72 1.05 0 1.49-.62 1.73-1.24h1.03zm1.9-5.33v2.96c.25-.42.71-.84 1.56-.84s1.72.47 1.72 1.96v3.25h-.98v-3.1c0-.82-.34-1.28-1.05-1.28-.89 0-1.25.6-1.25 1.6v2.78h-.98v-7.33h.98zm5.18 4.97c.01.96.5 1.67 1.32 1.67.76 0 1.01-.38 1.16-.74h1a2.1 2.1 0 0 1-2.19 1.55c-1.6 0-2.28-1.3-2.28-2.61 0-1.53.77-2.72 2.34-2.72 1.66 0 2.21 1.3 2.21 2.43 0 .16 0 .28-.02.42h-3.54zm2.57-.67c0-.8-.4-1.42-1.23-1.42-.86 0-1.23.59-1.3 1.42H42zm2.59.67c.01.96.5 1.67 1.32 1.67.76 0 1.01-.38 1.16-.74h.99c-.2.65-.74 1.55-2.18 1.55-1.6 0-2.28-1.3-2.28-2.61 0-1.53.77-2.72 2.34-2.72 1.66 0 2.21 1.3 2.21 2.43 0 .16 0 .28-.02.42H44.6zm2.57-.67c0-.8-.4-1.42-1.23-1.42-.86 0-1.23.59-1.3 1.42h2.53zm1.88-.69v-1.37H50c.02.14.03.56.03 1 .26-.66.85-1.1 1.7-1.12v.97c-1.04.02-1.7.5-1.7 1.82v2.42h-.98v-3.71zm3.35-2.48v-1.13h.97v1.13h-.98zm0 1.1h.97v5.1h-.98v-5.1zm6.67 2.54c0 1.49-.85 2.68-2.42 2.68-1.48 0-2.37-1.13-2.37-2.66 0-1.51.88-2.67 2.43-2.67 1.43 0 2.36 1.06 2.36 2.65zm-3.78 0c0 1.1.53 1.87 1.4 1.87.88 0 1.38-.73 1.38-1.85 0-1.13-.5-1.86-1.4-1.86s-1.38.7-1.38 1.85zm-34.58 6.98v2.34h2.31v.85h-2.3v2.39h-.87v-2.4h-2.32v-.84h2.32v-2.34h.86zm10.52 2.38H27.8v2.33h3.77l-.13.87h-4.65v-6.95h4.6v.88H27.8v2h3.43v.87zm1.94-1.89l1.14 1.84h.01c.21-.32.61-.97 1.18-1.84h1.1l-1.7 2.44 1.71 2.65h-1.13l-1.18-1.95-1.19 1.95h-1.09l1.68-2.53-1.64-2.56h1.11zm3.98 7.07v-7.07h.94a7 7 0 0 1 .04.77c.26-.5.77-.9 1.62-.9 1.18 0 2.04.99 2.04 2.54 0 1.82-.99 2.8-2.22 2.8-.8 0-1.22-.33-1.44-.71v2.57h-.98zm2.33-6.37c-1 0-1.4.64-1.4 1.84 0 1.16.33 1.85 1.33 1.85.9 0 1.37-.73 1.37-1.94 0-1.05-.47-1.75-1.3-1.75zm3.22.67v-1.37h.95c.02.14.03.56.03 1 .26-.66.85-1.1 1.7-1.12v.97c-1.04.02-1.7.5-1.7 1.82v2.42h-.98v-3.71zm3.96 1.36c.01.96.5 1.67 1.32 1.67.76 0 1.01-.38 1.16-.74h.99a2.1 2.1 0 0 1-2.18 1.55c-1.6 0-2.28-1.3-2.28-2.61 0-1.53.77-2.72 2.34-2.72 1.66 0 2.2 1.3 2.2 2.43l-.01.42h-3.54zm2.57-.67c-.01-.8-.4-1.42-1.23-1.42-.86 0-1.23.59-1.3 1.42h2.53zm2.5 1.56c.13.53.53.83 1.19.83.7 0 .97-.3.97-.72 0-.45-.23-.65-1.15-.88-1.5-.36-1.79-.82-1.79-1.52 0-.72.53-1.45 1.88-1.45 1.36 0 1.89.78 1.95 1.48h-.94c-.07-.3-.29-.74-1.05-.74-.67 0-.87.32-.87.63 0 .36.2.53 1.11.75 1.58.37 1.87.9 1.87 1.65 0 .89-.69 1.56-2.02 1.56-1.36 0-2-.68-2.13-1.6h.98zm4.67 0c.13.53.53.83 1.19.83.7 0 .97-.3.97-.72 0-.45-.23-.65-1.15-.88-1.5-.36-1.79-.82-1.79-1.52 0-.72.53-1.45 1.88-1.45 1.36 0 1.89.78 1.95 1.48h-.94c-.07-.3-.29-.74-1.05-.74-.67 0-.87.32-.87.63 0 .36.2.53 1.11.75 1.58.37 1.87.9 1.87 1.65 0 .89-.7 1.56-2.02 1.56-1.36 0-2-.68-2.13-1.6h.98z"/>
  <g fill="none" stroke="#000" stroke-miterlimit="10">
    <path d="M118.36 296.83v-.5"/>
    <path stroke-dasharray="1 1" d="M118.36 295.33V15.38"/>
    <path d="M118.36 14.88v-.5"/>
  </g>
</svg>
